<svg enable-background="new 0 0 298.32 61.01" viewBox="0 0 298.32 61.01" xmlns="http://www.w3.org/2000/svg"><g fill="#fff"><g transform="translate(59 17.103448)"><path d="m174.72 26.28c0 4.08-1.12 7.46-3.36 10.14-2.24 2.67-5.62 4.01-10.14 4.01s-7.94-1.35-10.25-4.05-3.47-6.07-3.47-10.1v-9.63c0-4.62 1.18-8.16 3.54-10.61s5.75-3.68 10.18-3.68c4.23 0 7.54 1.28 9.92 3.83s3.58 6.04 3.58 10.47zm-7.95-9.63c0-2.58-.54-4.25-1.61-5.03s-2.38-1.17-3.94-1.17c-3.79 0-5.69 2.07-5.69 6.2v10.35c0 1.94.54 3.35 1.61 4.23s2.43 1.31 4.09 1.31c1.61 0 2.93-.46 3.98-1.39 1.05-.92 1.57-2.31 1.57-4.16v-10.34z"/><path d="m198.26 16.72c0-1.94-.55-3.51-1.64-4.7s-2.57-1.79-4.41-1.79c-1.51 0-3.14.44-4.89 1.31v28.15h-7.95v-36.53h7.08l.95.44c2.04-.68 4.16-1.02 6.35-1.02 2.43 0 4.55.44 6.35 1.31 1.95.88 3.47 2.19 4.56 3.94s1.64 3.96 1.64 6.64v25.23h-8.03v-22.98z"/><path d="m219.37 28.83c0 1.36.38 2.42 1.13 3.17s1.86 1.13 3.32 1.13c2.24 0 5.23-.97 8.98-2.92l2.92 6.93c-1.75 1.12-3.75 1.97-5.98 2.55-2.24.58-4.48.88-6.71.88-3.6 0-6.46-.89-8.57-2.66-2.12-1.77-3.17-4.44-3.17-7.99v-14.95c0-3.94 1.23-7 3.69-9.19s5.7-3.28 9.74-3.28 7.19 1.08 9.45 3.25 3.39 5.17 3.39 9.01v11.09l-18.17.95v2.03zm10.07-13.93c0-1.46-.46-2.58-1.39-3.35s-2.07-1.17-3.43-1.17c-1.85 0-3.19.49-4.01 1.46-.83.97-1.24 2.04-1.24 3.21v4.38l10.07-.66z"/><path d="m102.45 17.52c0-2.63-.35-4.52-1.06-5.69s-1.84-1.75-3.39-1.75c-1.12 0-2.63.34-4.52 1.02l-1.24.51c.1.29.17.63.22 1.02s.07.75.07 1.09v25.96h-8.03v-21.94c0-2.43-.56-4.3-1.68-5.62-1.12-1.31-2.63-1.97-4.52-1.97-1.7 0-3.48.53-5.33 1.6v27.93h-8.03v-36.52h7.08l.95.51c1.61-.73 3.43-1.09 5.47-1.09 1.65 0 3.26.28 4.82.84s2.92 1.45 4.09 2.66c.68-.39 1.7-.92 3.06-1.6 2.87-1.31 5.64-1.97 8.32-1.97 3.45 0 6.28 1.06 8.46 3.17s3.28 5.04 3.28 8.79v25.23h-8.03v-22.18zm21.53 11.31c0 1.36.38 2.42 1.13 3.17s1.86 1.13 3.32 1.13c2.24 0 5.23-.97 8.98-2.92l2.92 6.93c-1.75 1.12-3.75 1.97-5.98 2.55-2.24.58-4.48.88-6.71.88-3.6 0-6.46-.89-8.57-2.66-2.12-1.77-3.17-4.44-3.17-7.99v-14.95c0-3.94 1.23-7 3.69-9.19s5.7-3.28 9.74-3.28 7.19 1.08 9.45 3.25 3.39 5.17 3.39 9.01v11.09l-18.17.95v2.03zm10.07-13.93c0-1.46-.46-2.58-1.39-3.35-.92-.78-2.07-1.17-3.43-1.17-1.85 0-3.19.49-4.01 1.46-.83.97-1.24 2.04-1.24 3.21v4.38l10.07-.66z"/><path d="m10.29 29.63c0 .88.45 1.7 1.35 2.48s2.27 1.17 4.12 1.17c1.61 0 2.85-.4 3.72-1.2.88-.8 1.31-1.74 1.31-2.81 0-1.51-.55-2.63-1.64-3.35-1.09-.73-2.86-1.53-5.29-2.41-2.09-.68-3.82-1.36-5.18-2.04s-2.58-1.7-3.65-3.06-1.7-3.14-1.9-5.32c-.15-1.65.18-3.32.99-5s2.16-3.06 4.09-4.16 4.39-1.64 7.41-1.64c1.56 0 2.93.16 4.12.47s2.13.64 2.81.98 1.09.56 1.24.66l-2.34 7.44c-.1-.1-.35-.28-.77-.55s-1.06-.52-1.93-.77c-.88-.24-1.92-.36-3.14-.36-2.63 0-3.94.73-3.94 2.19 0 .29.05.58.15.88.15.68.66 1.25 1.53 1.71s2.16 1.01 3.87 1.64c2.38.88 4.39 1.74 6.02 2.59s3.04 2.11 4.23 3.79 1.79 3.83 1.79 6.45c0 1.99-.49 3.85-1.46 5.58s-2.47 3.12-4.49 4.19-4.54 1.6-7.55 1.6c-2.77 0-5.17-.47-7.19-1.42s-3.55-2.2-4.6-3.76-1.62-3.28-1.71-5.18z"/><path d="m59.59 26.28c0 4.08-1.12 7.46-3.36 10.14-2.24 2.67-5.62 4.01-10.14 4.01s-7.94-1.35-10.25-4.05-3.47-6.07-3.47-10.1v-9.63c0-4.62 1.18-8.16 3.54-10.61s5.75-3.68 10.18-3.68c4.23 0 7.54 1.28 9.92 3.83s3.58 6.04 3.58 10.47zm-7.96-9.63c0-2.58-.54-4.25-1.61-5.03s-2.38-1.17-3.94-1.17c-3.79 0-5.69 2.07-5.69 6.2v10.35c0 1.94.54 3.35 1.61 4.23s2.43 1.31 4.09 1.31c1.61 0 2.93-.46 3.98-1.39 1.05-.92 1.57-2.31 1.57-4.16v-10.34z"/></g><path d="m39.77 2c7.73 0 14 6.27 14 14v43h-52v-43c0-7.73 6.27-14 14-14zm.91 33.74c-.23-.5-.83-.72-1.33-.48-5.26 2.46-9.12 3.68-11.58 3.68s-6.32-1.23-11.58-3.68c-.13-.06-.28-.09-.42-.09-.55 0-1 .45-1 1v.97c0 .41.25.78.63.93 5.87 2.35 9.99 3.53 12.37 3.53s6.51-1.18 12.37-3.53c.38-.15.63-.52.63-.93v-.97c0-.16-.03-.3-.09-.43zm-22.66-17.45c-2.69 0-4.88 2.19-4.88 4.89s2.18 4.89 4.88 4.89 4.88-2.19 4.88-4.89-2.19-4.89-4.88-4.89zm23.38 3.26h-7.75c-.51 0-.94.39-.99.88l-.01.12v1.26c0 .51.39.94.88.99l.12.01h7.75c.51 0 .94-.39.99-.88l.01-.12v-1.26c0-.55-.45-1-1-1z"/></g></svg>